<svg xmlns="http://www.w3.org/2000/svg" xmlns:xlink="http://www.w3.org/1999/xlink" width="500" zoomAndPan="magnify" viewBox="0 0 375 112.499997" height="150" preserveAspectRatio="xMidYMid meet" version="1.0"><defs><g/></defs><g fill="#000000" fill-opacity="1"><g transform="translate(14.278566, 71.27294)"><g><path d="M 20.765625 -6.546875 L 9.28125 -6.546875 L 7.109375 0 L 0.15625 0 L 11.96875 -31.75 L 18.03125 -31.75 L 29.921875 0 L 22.953125 0 Z M 11.0625 -11.84375 L 18.984375 -11.84375 L 15 -23.71875 Z M 11.0625 -11.84375 "/></g></g></g><g fill="#000000" fill-opacity="1"><g transform="translate(48.795309, 71.27294)"><g><path d="M 14.59375 -11.625 L 9.375 -11.625 L 9.375 0 L 2.828125 0 L 2.828125 -31.75 L 14.625 -31.75 C 18.375 -31.75 21.265625 -30.910156 23.296875 -29.234375 C 25.335938 -27.566406 26.359375 -25.207031 26.359375 -22.15625 C 26.359375 -19.988281 25.890625 -18.179688 24.953125 -16.734375 C 24.015625 -15.285156 22.59375 -14.132812 20.6875 -13.28125 L 27.5625 -0.3125 L 27.5625 0 L 20.546875 0 Z M 9.375 -16.921875 L 14.65625 -16.921875 C 16.289062 -16.921875 17.5625 -17.335938 18.46875 -18.171875 C 19.375 -19.003906 19.828125 -20.15625 19.828125 -21.625 C 19.828125 -23.125 19.398438 -24.300781 18.546875 -25.15625 C 17.691406 -26.019531 16.382812 -26.453125 14.625 -26.453125 L 9.375 -26.453125 Z M 9.375 -16.921875 "/></g></g></g><g fill="#000000" fill-opacity="1"><g transform="translate(81.763757, 71.27294)"><g><path d="M 27.75 -10.578125 C 27.507812 -7.160156 26.25 -4.46875 23.96875 -2.5 C 21.695312 -0.539062 18.703125 0.4375 14.984375 0.4375 C 10.910156 0.4375 7.707031 -0.929688 5.375 -3.671875 C 3.039062 -6.410156 1.875 -10.171875 1.875 -14.953125 L 1.875 -16.90625 C 1.875 -19.957031 2.410156 -22.644531 3.484375 -24.96875 C 4.566406 -27.289062 6.101562 -29.070312 8.09375 -30.3125 C 10.09375 -31.5625 12.414062 -32.1875 15.0625 -32.1875 C 18.726562 -32.1875 21.679688 -31.203125 23.921875 -29.234375 C 26.160156 -27.273438 27.453125 -24.519531 27.796875 -20.96875 L 21.265625 -20.96875 C 21.097656 -23.019531 20.523438 -24.503906 19.546875 -25.421875 C 18.566406 -26.347656 17.070312 -26.8125 15.0625 -26.8125 C 12.882812 -26.8125 11.253906 -26.03125 10.171875 -24.46875 C 9.085938 -22.90625 8.53125 -20.484375 8.5 -17.203125 L 8.5 -14.8125 C 8.5 -11.375 9.019531 -8.863281 10.0625 -7.28125 C 11.101562 -5.695312 12.742188 -4.90625 14.984375 -4.90625 C 17.003906 -4.90625 18.507812 -5.363281 19.5 -6.28125 C 20.5 -7.207031 21.070312 -8.640625 21.21875 -10.578125 Z M 27.75 -10.578125 "/></g></g></g><g fill="#000000" fill-opacity="1"><g transform="translate(115.451834, 71.27294)"><g><path d="M 28.671875 0 L 22.125 0 L 22.125 -13.609375 L 9.375 -13.609375 L 9.375 0 L 2.828125 0 L 2.828125 -31.75 L 9.375 -31.75 L 9.375 -18.890625 L 22.125 -18.890625 L 22.125 -31.75 L 28.671875 -31.75 Z M 28.671875 0 "/></g></g></g><g fill="#000000" fill-opacity="1"><g transform="translate(151.473268, 71.27294)"><g><path d="M 9.796875 0 L 3.25 0 L 3.25 -31.75 L 9.796875 -31.75 Z M 9.796875 0 "/></g></g></g><g fill="#000000" fill-opacity="1"><g transform="translate(168.958691, 71.27294)"><g><path d="M 9.375 -11.1875 L 9.375 0 L 2.828125 0 L 2.828125 -31.75 L 15.21875 -31.75 C 17.601562 -31.75 19.695312 -31.3125 21.5 -30.4375 C 23.3125 -29.5625 24.703125 -28.320312 25.671875 -26.71875 C 26.648438 -25.113281 27.140625 -23.285156 27.140625 -21.234375 C 27.140625 -18.128906 26.078125 -15.675781 23.953125 -13.875 C 21.828125 -12.082031 18.878906 -11.1875 15.109375 -11.1875 Z M 9.375 -16.484375 L 15.21875 -16.484375 C 16.945312 -16.484375 18.265625 -16.890625 19.171875 -17.703125 C 20.085938 -18.515625 20.546875 -19.675781 20.546875 -21.1875 C 20.546875 -22.75 20.085938 -24.007812 19.171875 -24.96875 C 18.253906 -25.925781 16.988281 -26.421875 15.375 -26.453125 L 9.375 -26.453125 Z M 9.375 -16.484375 "/></g></g></g><g fill="#000000" fill-opacity="1"><g transform="translate(202.232434, 71.27294)"><g><path d="M 21.9375 -13.765625 L 9.375 -13.765625 L 9.375 -5.25 L 24.109375 -5.25 L 24.109375 0 L 2.828125 0 L 2.828125 -31.75 L 24.078125 -31.75 L 24.078125 -26.453125 L 9.375 -26.453125 L 9.375 -18.890625 L 21.9375 -18.890625 Z M 21.9375 -13.765625 "/></g></g></g><g fill="#000000" fill-opacity="1"><g transform="translate(231.820775, 71.27294)"><g><path d="M 9.375 -5.25 L 23.265625 -5.25 L 23.265625 0 L 2.828125 0 L 2.828125 -31.75 L 9.375 -31.75 Z M 9.375 -5.25 "/></g></g></g><g fill="#000000" fill-opacity="1"><g transform="translate(260.47142, 71.27294)"><g><path d="M 20.765625 -6.546875 L 9.28125 -6.546875 L 7.109375 0 L 0.15625 0 L 11.96875 -31.75 L 18.03125 -31.75 L 29.921875 0 L 22.953125 0 Z M 11.0625 -11.84375 L 18.984375 -11.84375 L 15 -23.71875 Z M 11.0625 -11.84375 "/></g></g></g><g fill="#000000" fill-opacity="1"><g transform="translate(294.988159, 71.27294)"><g><path d="M 27.953125 -4.015625 C 26.773438 -2.597656 25.109375 -1.5 22.953125 -0.71875 C 20.804688 0.0507812 18.425781 0.4375 15.8125 0.4375 C 13.0625 0.4375 10.648438 -0.160156 8.578125 -1.359375 C 6.503906 -2.554688 4.90625 -4.296875 3.78125 -6.578125 C 2.65625 -8.867188 2.078125 -11.550781 2.046875 -14.625 L 2.046875 -16.796875 C 2.046875 -19.960938 2.578125 -22.703125 3.640625 -25.015625 C 4.710938 -27.335938 6.253906 -29.113281 8.265625 -30.34375 C 10.285156 -31.570312 12.644531 -32.1875 15.34375 -32.1875 C 19.113281 -32.1875 22.054688 -31.285156 24.171875 -29.484375 C 26.296875 -27.691406 27.554688 -25.082031 27.953125 -21.65625 L 21.59375 -21.65625 C 21.300781 -23.46875 20.65625 -24.796875 19.65625 -25.640625 C 18.65625 -26.484375 17.285156 -26.90625 15.546875 -26.90625 C 13.316406 -26.90625 11.617188 -26.066406 10.453125 -24.390625 C 9.296875 -22.722656 8.710938 -20.238281 8.703125 -16.9375 L 8.703125 -14.921875 C 8.703125 -11.585938 9.332031 -9.066406 10.59375 -7.359375 C 11.863281 -5.660156 13.71875 -4.8125 16.15625 -4.8125 C 18.613281 -4.8125 20.363281 -5.335938 21.40625 -6.390625 L 21.40625 -11.859375 L 15.453125 -11.859375 L 15.453125 -16.6875 L 27.953125 -16.6875 Z M 27.953125 -4.015625 "/></g></g></g><g fill="#000000" fill-opacity="1"><g transform="translate(329.875625, 71.27294)"><g><path d="M 28.90625 -15.15625 C 28.90625 -12.03125 28.351562 -9.289062 27.25 -6.9375 C 26.144531 -4.582031 24.5625 -2.765625 22.5 -1.484375 C 20.445312 -0.203125 18.09375 0.4375 15.4375 0.4375 C 12.800781 0.4375 10.453125 -0.191406 8.390625 -1.453125 C 6.328125 -2.722656 4.726562 -4.53125 3.59375 -6.875 C 2.457031 -9.226562 1.882812 -11.929688 1.875 -14.984375 L 1.875 -16.546875 C 1.875 -19.671875 2.4375 -22.421875 3.5625 -24.796875 C 4.6875 -27.179688 6.273438 -29.007812 8.328125 -30.28125 C 10.390625 -31.550781 12.742188 -32.1875 15.390625 -32.1875 C 18.035156 -32.1875 20.382812 -31.550781 22.4375 -30.28125 C 24.5 -29.007812 26.09375 -27.179688 27.21875 -24.796875 C 28.34375 -22.421875 28.90625 -19.679688 28.90625 -16.578125 Z M 22.28125 -16.59375 C 22.28125 -19.925781 21.679688 -22.457031 20.484375 -24.1875 C 19.296875 -25.914062 17.597656 -26.78125 15.390625 -26.78125 C 13.203125 -26.78125 11.507812 -25.925781 10.3125 -24.21875 C 9.125 -22.507812 8.519531 -20.003906 8.5 -16.703125 L 8.5 -15.15625 C 8.5 -11.914062 9.09375 -9.398438 10.28125 -7.609375 C 11.476562 -5.816406 13.195312 -4.921875 15.4375 -4.921875 C 17.632812 -4.921875 19.320312 -5.78125 20.5 -7.5 C 21.675781 -9.226562 22.269531 -11.742188 22.28125 -15.046875 Z M 22.28125 -16.59375 "/></g></g></g></svg>